<svg xmlns="http://www.w3.org/2000/svg" width="165" height="30" fill="none" viewBox="0 0 165 30"><path fill="#D52425" d="M1.0625 4.53125V8H7.4375L0.0625 13.5625L2.84375 16.625L8.40625 12.125L13.9688 16.625L16.8125 13.5938L9.3125 8H15.6875V4.53125H1.0625ZM22.3438 16.5312H26.3438V4.53125H22.3438V16.5312Z"/><path fill="#fff" d="M54.5938 14.0938L46.8125 4.5H45.1875L37.4062 14.1562L40.625 16.625L45.9375 10.0625L51.375 16.5938L54.5938 14.0938ZM32 18.7812V22.25H60V18.7812H32ZM66.8125 2.5625V16.5938H89.25V13.25H70.8125V11.4375H89.125V8.0625H70.8125V6.34375H89.125V2.5625H66.8125ZM64 18.7812V22.25H92V18.7812H64ZM108.094 4.53125V8H114.25L106.719 13.5625L109.531 16.625L115.094 11.875L120.562 16.625L123.469 13.5938L115.812 8H122V4.53125H117.094V2.25H113.094V4.53125H108.094ZM129 4.53125V8.53125H124.344V12H129V16.5312H133V4.53125H129ZM122.031 21.6562C122.615 21.6562 123.115 21.8646 123.531 22.2812C123.969 22.6979 124.188 23.2188 124.188 23.8438C124.188 24.4062 123.969 24.9062 123.531 25.3438C123.115 25.7812 122.615 26 122.031 26C121.427 26 120.906 25.7812 120.469 25.3438C120.052 24.9271 119.844 24.4271 119.844 23.8438C119.844 23.2188 120.052 22.6979 120.469 22.2812C120.885 21.8646 121.406 21.6562 122.031 21.6562ZM122.031 17.8438C120.365 17.8438 118.948 18.4167 117.781 19.5625C116.615 20.75 116.031 22.1771 116.031 23.8438C116.031 25.4896 116.615 26.8958 117.781 28.0625C118.948 29.2292 120.365 29.8125 122.031 29.8125C123.656 29.8125 125.062 29.2292 126.25 28.0625C127.438 26.8958 128.031 25.4896 128.031 23.8438C128.031 22.1771 127.438 20.75 126.25 19.5625C125.062 18.4167 123.656 17.8438 122.031 17.8438ZM147.156 4.34375C147.76 4.34375 148.271 4.55208 148.688 4.96875C149.125 5.40625 149.344 5.92708 149.344 6.53125C149.344 7.11458 149.125 7.61458 148.688 8.03125C148.271 8.46875 147.76 8.6875 147.156 8.6875C146.552 8.6875 146.031 8.46875 145.594 8.03125C145.177 7.61458 144.969 7.11458 144.969 6.53125C144.969 5.92708 145.177 5.40625 145.594 4.96875C146.031 4.55208 146.552 4.34375 147.156 4.34375ZM147.156 0.5625C145.49 0.5625 144.073 1.14583 142.906 2.3125C141.74 3.47917 141.156 4.89583 141.156 6.5625C141.156 8.20833 141.74 9.61458 142.906 10.7812C144.073 11.9688 145.49 12.5625 147.156 12.5625C148.802 12.5625 150.208 11.9688 151.375 10.7812C152.562 9.61458 153.156 8.20833 153.156 6.5625C153.156 4.89583 152.562 3.47917 151.375 2.3125C150.208 1.14583 148.802 0.5625 147.156 0.5625ZM138.656 13.0938V16.5312H145.156V19.5938H149.156V16.5312H155.656V13.0938H138.656ZM161 4.53125V8.53125H156.656V12H161V16.5312H165V4.53125H161ZM144.344 18.5312H140.344V25.1562H165V21.6875H144.344V18.5312Z"/></svg>